<svg xmlns="http://www.w3.org/2000/svg" width="33.697" height="20.346">
  <path fill="#009aff" d="M21.13 20.347a1.362 1.362 0 01-.966-.4 4.66 4.66 0 00-3.315-1.373 4.661 4.661 0 00-3.316 1.373 1.365 1.365 0 01-1.931 0 1.365 1.365 0 010-1.931 7.37 7.37 0 015.247-2.173 7.371 7.371 0 015.247 2.173 1.366 1.366 0 010 1.931 1.362 1.362 0 01-.966.4zM26.568 14.907a1.36 1.36 0 01-.966-.4 12.3 12.3 0 00-8.754-3.625 12.3 12.3 0 00-8.754 3.625 1.365 1.365 0 01-1.931 0 1.365 1.365 0 010-1.931 15.013 15.013 0 0110.685-4.425 15.013 15.013 0 0110.685 4.425 1.365 1.365 0 010 1.931 1.359 1.359 0 01-.965.4z"/>
  <path fill="#009aff" d="M32.337 9.145a1.36 1.36 0 01-.966-.4 20.393 20.393 0 00-14.517-6.013A20.4 20.4 0 002.336 8.745a1.365 1.365 0 01-1.931 0 1.365 1.365 0 010-1.931A23.194 23.194 0 017.799 1.83 23.116 23.116 0 0116.854.001a23.125 23.125 0 019.055 1.829 23.169 23.169 0 017.393 4.985 1.365 1.365 0 010 1.931 1.361 1.361 0 01-.965.399z"/>
</svg>