<svg xmlns="http://www.w3.org/2000/svg" width="26.889" height="26.092">
  <path fill="#009aff" d="M25.525 10.661a1.365 1.365 0 01-1.365-1.365V6.075a3.347 3.347 0 00-3.344-3.343h-3.221a1.365 1.365 0 01-1.365-1.366A1.365 1.365 0 0117.595.001h3.221a6.081 6.081 0 016.074 6.074v3.221a1.365 1.365 0 01-1.365 1.365z"/>
  <path fill="#009aff" d="M25.525 10.661a1.365 1.365 0 01-1.365-1.365V6.075a3.347 3.347 0 00-3.344-3.343h-3.221a1.365 1.365 0 01-1.365-1.366A1.365 1.365 0 0117.595.001h3.221a6.081 6.081 0 016.074 6.074v3.221a1.365 1.365 0 01-1.365 1.365zM1.365 10.661A1.365 1.365 0 010 9.296V6.075A6.082 6.082 0 016.075 0h3.22a1.365 1.365 0 011.365 1.365 1.365 1.365 0 01-1.365 1.366h-3.22a3.348 3.348 0 00-3.344 3.344v3.221a1.365 1.365 0 01-1.366 1.365zM9.296 26.093H6.075a6.081 6.081 0 01-6.074-6.074v-3.221a1.365 1.365 0 011.365-1.365 1.365 1.365 0 011.365 1.365v3.221a3.347 3.347 0 003.344 3.344h3.221a1.365 1.365 0 011.365 1.365 1.365 1.365 0 01-1.365 1.365z"/>
  <path fill="#009aff" d="M9.296 26.093H6.075a6.081 6.081 0 01-6.074-6.074v-3.221a1.365 1.365 0 011.365-1.365 1.365 1.365 0 011.365 1.365v3.221a3.347 3.347 0 003.344 3.344h3.221a1.365 1.365 0 011.365 1.365 1.365 1.365 0 01-1.365 1.365zM20.814 26.093h-3.22a1.365 1.365 0 01-1.365-1.365 1.365 1.365 0 011.365-1.365h3.22a3.348 3.348 0 003.344-3.345v-3.22a1.365 1.365 0 011.365-1.365 1.365 1.365 0 011.365 1.365v3.22a6.082 6.082 0 01-6.074 6.075zM14.823 18.304h-2.758a3.885 3.885 0 01-3.88-3.88v-2.758a3.884 3.884 0 013.88-3.88h2.758a3.884 3.884 0 013.88 3.88v2.758a3.885 3.885 0 01-3.88 3.88zm-2.758-7.787a1.151 1.151 0 00-1.149 1.149v2.758a1.15 1.15 0 001.149 1.148h2.758a1.15 1.15 0 001.149-1.148v-2.758a1.151 1.151 0 00-1.149-1.149z"/>
</svg>