<svg xmlns="http://www.w3.org/2000/svg" width="279.08" height="279.09" viewBox="0 0 279.08 279.09"><title>qrmarker</title><path d="M32.35,279.09H13.21A13.23,13.23,0,0,1,0,265.87V246.74H6v19.13a7.22,7.22,0,0,0,7.21,7.22H32.35Z" style="fill:#0076ff"/><path d="M265.86,279.09H246.73v-6h19.13a7.23,7.23,0,0,0,7.22-7.22V246.74h6v19.13A13.23,13.23,0,0,1,265.86,279.09Z" style="fill:#0076ff"/><path d="M279.08,32.35h-6V13.22A7.23,7.23,0,0,0,265.86,6H246.73V0h19.13a13.23,13.23,0,0,1,13.22,13.22Z" style="fill:#0076ff"/><path d="M6,32.35H0V13.22A13.23,13.23,0,0,1,13.21,0H32.35V6H13.21A7.22,7.22,0,0,0,6,13.22Z" style="fill:#0076ff"/></svg>

