<svg xmlns="http://www.w3.org/2000/svg" width="105.822" height="75.108">
  <g fill="#cfcfcf" opacity=".49">
    <path d="M105.621 21.939a1.267 1.267 0 00-.139-.168 74.346 74.346 0 00-105.139 0 1.162 1.162 0 000 1.646l7.689 7.686a1.16 1.16 0 001.641 0 61.082 61.082 0 0186.484 0 1.16 1.16 0 001.641 0l7.688-7.686a1.165 1.165 0 00.139-1.477zm0 0"/>
    <path d="M52.912 20.33a53.649 53.649 0 00-38.18 15.84 1.16 1.16 0 000 1.641l7.664 7.662a1.16 1.16 0 001.641 0 40.787 40.787 0 0157.746 0 1.162 1.162 0 001.643 0l7.664-7.662a1.16 1.16 0 000-1.641 53.651 53.651 0 00-38.178-15.84zm0 0"/>
    <path d="M52.909 40.659a33.457 33.457 0 00-23.811 9.881 1.165 1.165 0 000 1.641l7.662 7.662a1.165 1.165 0 001.645 0 20.486 20.486 0 0129.01 0 1.16 1.16 0 001.641 0l7.664-7.662a1.16 1.16 0 000-1.641 33.457 33.457 0 00-23.811-9.881zm0 0M52.911 62.2a11.665 11.665 0 00-8.307 3.439 1.159 1.159 0 000 1.643l7.484 7.486a1.162 1.162 0 001.643 0l7.484-7.486a1.159 1.159 0 000-1.643 11.66 11.66 0 00-8.3-3.439zm0 0"/>
  </g>
</svg>